# xmcd
#
# Track frame offsets: 
#        150
#        13575
#        27102
#        42815
#        58716
#        70719
#        93540
#        115491
#        130182
#        159708
#        184980
#        198381
#        212793
#        228882
#        241850
#        259652
#        271273
#        287780
#        305164
#        322210
#
# Disc length: 4457 seconds
#
# Revision: 0
# Processed by: cddbd v1.5.2PL0 Copyright (c) Steve Scherf et al.
# Submitted via: ExactAudioCopyFreeDBPlugin 1.0
#
DISCID=27116714
DTITLE=Various Artist - Super Country CD2
DYEAR=1900
DGENRE=Country
TTITLE0=Daniel Posey - Beautiful Sunday
TTITLE1=Glen Campbell - Rhinestone Cowboy
TTITLE2=Terry Jack - Seasons In The Sun
TTITLE3=Leo Sayer - More Than I Can Say
TTITLE4=C.C.R - Have You Ever Seen The Rain
TTITLE5=Trisha Yearwood - New Kid In Town
TTITLE6=Simon and Garfunkel - Bridge Over Troubled Water
TTITLE7=Lobo - My First Time
TTITLE8=Dan Fogelberg - Sutter Mill
TTITLE9=Extreme - More Than Words
TTITLE10=Don Sea's and Emmylou Harris - Lullaby
TTITLE11=Ronnie Milsap - No Getting Over Me
TTITLE12=Gordon Lightfoot - Sundown
TTITLE13=Dr. Hook - When You In Love With A Beautiful Woman
TTITLE14=Suzi Quato and Chris Norman - Stumbin'in
TTITLE15=Don Gib - I Can't Stop Loving You
TTITLE16=John Denver - Leaving On A Jet Plane 
TTITLE17=Chicago - If You Leave Me Now
TTITLE18=The Brothers Four - Don't Think Twice It's All Right
TTITLE19=Conway Twitty - Hello Darling
EXTD=
EXTT0=
EXTT1=
EXTT2=
EXTT3=
EXTT4=
EXTT5=
EXTT6=
EXTT7=
EXTT8=
EXTT9=
EXTT10=
EXTT11=
EXTT12=
EXTT13=
EXTT14=
EXTT15=
EXTT16=
EXTT17=
EXTT18=
EXTT19=
PLAYORDER=
